<svg width="230" height="114" viewBox="0 0 230 114" fill="none" xmlns="http://www.w3.org/2000/svg">
<path d="M3 103.927C17.5279 76.1463 50.0299 27.6362 63.8145 55.8447C81.0452 91.1054 118.548 139.188 125.643 86.984C132.738 34.78 147.941 -19.7138 169.226 12.7993C186.254 38.8097 190.511 84.3891 190.511 103.927C200.309 107.896 221.324 103.836 227 55.8447" stroke="white" stroke-width="6"/>
<path d="M3 103.927C17.5279 76.1463 50.0299 27.6362 63.8145 55.8447C81.0452 91.1054 118.548 139.188 125.643 86.984C132.738 34.78 147.941 -19.7138 169.226 12.7993C186.254 38.8097 190.511 84.3891 190.511 103.927C200.309 107.896 221.324 103.836 227 55.8447" stroke="black" stroke-opacity="0.2" stroke-width="6"/>
</svg>
